%TF.GenerationSoftware,KiCad,Pcbnew,(6.0.4)*%
%TF.CreationDate,2023-06-02T13:45:04+02:00*%
%TF.ProjectId,Modbus-RJ45-Breakout,4d6f6462-7573-42d5-924a-34352d427265,0.0.2*%
%TF.SameCoordinates,Original*%
%TF.FileFunction,Paste,Bot*%
%TF.FilePolarity,Positive*%
%FSLAX46Y46*%
G04 Gerber Fmt 4.6, Leading zero omitted, Abs format (unit mm)*
G04 Created by KiCad (PCBNEW (6.0.4)) date 2023-06-02 13:45:04*
%MOMM*%
%LPD*%
G01*
G04 APERTURE LIST*
G04 Aperture macros list*
%AMRoundRect*
0 Rectangle with rounded corners*
0 $1 Rounding radius*
0 $2 $3 $4 $5 $6 $7 $8 $9 X,Y pos of 4 corners*
0 Add a 4 corners polygon primitive as box body*
4,1,4,$2,$3,$4,$5,$6,$7,$8,$9,$2,$3,0*
0 Add four circle primitives for the rounded corners*
1,1,$1+$1,$2,$3*
1,1,$1+$1,$4,$5*
1,1,$1+$1,$6,$7*
1,1,$1+$1,$8,$9*
0 Add four rect primitives between the rounded corners*
20,1,$1+$1,$2,$3,$4,$5,0*
20,1,$1+$1,$4,$5,$6,$7,0*
20,1,$1+$1,$6,$7,$8,$9,0*
20,1,$1+$1,$8,$9,$2,$3,0*%
G04 Aperture macros list end*
%ADD10RoundRect,0.237500X0.300000X0.237500X-0.300000X0.237500X-0.300000X-0.237500X0.300000X-0.237500X0*%
%ADD11RoundRect,0.237500X0.250000X0.237500X-0.250000X0.237500X-0.250000X-0.237500X0.250000X-0.237500X0*%
%ADD12RoundRect,0.237500X0.237500X-0.300000X0.237500X0.300000X-0.237500X0.300000X-0.237500X-0.300000X0*%
%ADD13RoundRect,0.237500X-0.300000X-0.237500X0.300000X-0.237500X0.300000X0.237500X-0.300000X0.237500X0*%
%ADD14RoundRect,0.150000X0.825000X0.150000X-0.825000X0.150000X-0.825000X-0.150000X0.825000X-0.150000X0*%
%ADD15RoundRect,0.237500X-0.237500X0.250000X-0.237500X-0.250000X0.237500X-0.250000X0.237500X0.250000X0*%
%ADD16RoundRect,0.237500X-0.250000X-0.237500X0.250000X-0.237500X0.250000X0.237500X-0.250000X0.237500X0*%
%ADD17RoundRect,0.250000X0.650000X-0.412500X0.650000X0.412500X-0.650000X0.412500X-0.650000X-0.412500X0*%
%ADD18RoundRect,0.237500X0.237500X-0.250000X0.237500X0.250000X-0.237500X0.250000X-0.237500X-0.250000X0*%
%ADD19RoundRect,0.237500X-0.237500X0.300000X-0.237500X-0.300000X0.237500X-0.300000X0.237500X0.300000X0*%
%ADD20RoundRect,0.075000X0.662500X0.075000X-0.662500X0.075000X-0.662500X-0.075000X0.662500X-0.075000X0*%
%ADD21RoundRect,0.075000X0.075000X0.662500X-0.075000X0.662500X-0.075000X-0.662500X0.075000X-0.662500X0*%
G04 APERTURE END LIST*
D10*
%TO.C,C35*%
X115262500Y-51200000D03*
X113537500Y-51200000D03*
%TD*%
D11*
%TO.C,R10*%
X116712500Y-59450000D03*
X114887500Y-59450000D03*
%TD*%
D12*
%TO.C,C11*%
X80950000Y-90712500D03*
X80950000Y-88987500D03*
%TD*%
D11*
%TO.C,R12*%
X103662500Y-54050000D03*
X101837500Y-54050000D03*
%TD*%
D12*
%TO.C,C9*%
X82350000Y-57212500D03*
X82350000Y-55487500D03*
%TD*%
D13*
%TO.C,C5*%
X105287500Y-54050000D03*
X107012500Y-54050000D03*
%TD*%
D14*
%TO.C,U5*%
X122575000Y-51295000D03*
X122575000Y-52565000D03*
X122575000Y-53835000D03*
X122575000Y-55105000D03*
X117625000Y-55105000D03*
X117625000Y-53835000D03*
X117625000Y-52565000D03*
X117625000Y-51295000D03*
%TD*%
D11*
%TO.C,R13*%
X91362500Y-54050000D03*
X89537500Y-54050000D03*
%TD*%
D15*
%TO.C,R27*%
X126200000Y-53337500D03*
X126200000Y-55162500D03*
%TD*%
D16*
%TO.C,R34*%
X113487500Y-54200000D03*
X115312500Y-54200000D03*
%TD*%
D12*
%TO.C,C3*%
X130150000Y-62562500D03*
X130150000Y-60837500D03*
%TD*%
D17*
%TO.C,C34*%
X107450000Y-89950000D03*
X107450000Y-86825000D03*
%TD*%
%TO.C,C2*%
X128150000Y-63262500D03*
X128150000Y-60137500D03*
%TD*%
D10*
%TO.C,C4*%
X100262500Y-54050000D03*
X98537500Y-54050000D03*
%TD*%
D13*
%TO.C,C7*%
X110037500Y-62300000D03*
X111762500Y-62300000D03*
%TD*%
D18*
%TO.C,R8*%
X114900000Y-62812500D03*
X114900000Y-60987500D03*
%TD*%
D17*
%TO.C,C33*%
X92650000Y-89962500D03*
X92650000Y-86837500D03*
%TD*%
D11*
%TO.C,R32*%
X129962500Y-58150000D03*
X128137500Y-58150000D03*
%TD*%
D18*
%TO.C,R9*%
X111750000Y-60762500D03*
X111750000Y-58937500D03*
%TD*%
D19*
%TO.C,C22*%
X103850000Y-96987500D03*
X103850000Y-98712500D03*
%TD*%
D13*
%TO.C,C36*%
X105587500Y-68900000D03*
X107312500Y-68900000D03*
%TD*%
D18*
%TO.C,R7*%
X113350000Y-62812500D03*
X113350000Y-60987500D03*
%TD*%
%TO.C,R26*%
X124700000Y-55162500D03*
X124700000Y-53337500D03*
%TD*%
D11*
%TO.C,L2*%
X126112500Y-63250000D03*
X124287500Y-63250000D03*
%TD*%
D20*
%TO.C,U1*%
X107062500Y-60250000D03*
X107062500Y-60750000D03*
X107062500Y-61250000D03*
X107062500Y-61750000D03*
X107062500Y-62250000D03*
X107062500Y-62750000D03*
X107062500Y-63250000D03*
X107062500Y-63750000D03*
X107062500Y-64250000D03*
X107062500Y-64750000D03*
X107062500Y-65250000D03*
X107062500Y-65750000D03*
D21*
X105650000Y-67162500D03*
X105150000Y-67162500D03*
X104650000Y-67162500D03*
X104150000Y-67162500D03*
X103650000Y-67162500D03*
X103150000Y-67162500D03*
X102650000Y-67162500D03*
X102150000Y-67162500D03*
X101650000Y-67162500D03*
X101150000Y-67162500D03*
X100650000Y-67162500D03*
X100150000Y-67162500D03*
D20*
X98737500Y-65750000D03*
X98737500Y-65250000D03*
X98737500Y-64750000D03*
X98737500Y-64250000D03*
X98737500Y-63750000D03*
X98737500Y-63250000D03*
X98737500Y-62750000D03*
X98737500Y-62250000D03*
X98737500Y-61750000D03*
X98737500Y-61250000D03*
X98737500Y-60750000D03*
X98737500Y-60250000D03*
D21*
X100150000Y-58837500D03*
X100650000Y-58837500D03*
X101150000Y-58837500D03*
X101650000Y-58837500D03*
X102150000Y-58837500D03*
X102650000Y-58837500D03*
X103150000Y-58837500D03*
X103650000Y-58837500D03*
X104150000Y-58837500D03*
X104650000Y-58837500D03*
X105150000Y-58837500D03*
X105650000Y-58837500D03*
%TD*%
D16*
%TO.C,R33*%
X113487500Y-52700000D03*
X115312500Y-52700000D03*
%TD*%
D19*
%TO.C,C12*%
X88700000Y-96937500D03*
X88700000Y-98662500D03*
%TD*%
M02*
