%TF.GenerationSoftware,KiCad,Pcbnew,(6.0.4)*%
%TF.CreationDate,2023-06-02T13:45:04+02:00*%
%TF.ProjectId,Modbus-RJ45-Breakout,4d6f6462-7573-42d5-924a-34352d427265,0.0.2*%
%TF.SameCoordinates,Original*%
%TF.FileFunction,Paste,Top*%
%TF.FilePolarity,Positive*%
%FSLAX46Y46*%
G04 Gerber Fmt 4.6, Leading zero omitted, Abs format (unit mm)*
G04 Created by KiCad (PCBNEW (6.0.4)) date 2023-06-02 13:45:04*
%MOMM*%
%LPD*%
G01*
G04 APERTURE LIST*
G04 Aperture macros list*
%AMRoundRect*
0 Rectangle with rounded corners*
0 $1 Rounding radius*
0 $2 $3 $4 $5 $6 $7 $8 $9 X,Y pos of 4 corners*
0 Add a 4 corners polygon primitive as box body*
4,1,4,$2,$3,$4,$5,$6,$7,$8,$9,$2,$3,0*
0 Add four circle primitives for the rounded corners*
1,1,$1+$1,$2,$3*
1,1,$1+$1,$4,$5*
1,1,$1+$1,$6,$7*
1,1,$1+$1,$8,$9*
0 Add four rect primitives between the rounded corners*
20,1,$1+$1,$2,$3,$4,$5,0*
20,1,$1+$1,$4,$5,$6,$7,0*
20,1,$1+$1,$6,$7,$8,$9,0*
20,1,$1+$1,$8,$9,$2,$3,0*%
G04 Aperture macros list end*
%ADD10RoundRect,0.237500X0.250000X0.237500X-0.250000X0.237500X-0.250000X-0.237500X0.250000X-0.237500X0*%
%ADD11R,2.000000X1.500000*%
%ADD12R,2.000000X3.800000*%
%ADD13RoundRect,0.237500X0.300000X0.237500X-0.300000X0.237500X-0.300000X-0.237500X0.300000X-0.237500X0*%
%ADD14RoundRect,0.250001X-0.624999X0.462499X-0.624999X-0.462499X0.624999X-0.462499X0.624999X0.462499X0*%
%ADD15RoundRect,0.237500X-0.237500X0.250000X-0.237500X-0.250000X0.237500X-0.250000X0.237500X0.250000X0*%
%ADD16RoundRect,0.237500X0.287500X0.237500X-0.287500X0.237500X-0.287500X-0.237500X0.287500X-0.237500X0*%
%ADD17RoundRect,0.237500X-0.250000X-0.237500X0.250000X-0.237500X0.250000X0.237500X-0.250000X0.237500X0*%
%ADD18RoundRect,0.250000X0.412500X0.650000X-0.412500X0.650000X-0.412500X-0.650000X0.412500X-0.650000X0*%
%ADD19RoundRect,0.237500X-0.300000X-0.237500X0.300000X-0.237500X0.300000X0.237500X-0.300000X0.237500X0*%
%ADD20RoundRect,0.250000X0.650000X-0.412500X0.650000X0.412500X-0.650000X0.412500X-0.650000X-0.412500X0*%
%ADD21RoundRect,0.250000X-0.650000X0.412500X-0.650000X-0.412500X0.650000X-0.412500X0.650000X0.412500X0*%
%ADD22RoundRect,0.250000X0.625000X-0.400000X0.625000X0.400000X-0.625000X0.400000X-0.625000X-0.400000X0*%
%ADD23R,2.500000X0.500000*%
%ADD24R,2.500000X2.000000*%
%ADD25R,3.150000X1.000000*%
%ADD26RoundRect,0.237500X0.237500X-0.250000X0.237500X0.250000X-0.237500X0.250000X-0.237500X-0.250000X0*%
%ADD27RoundRect,0.250000X-0.412500X-0.650000X0.412500X-0.650000X0.412500X0.650000X-0.412500X0.650000X0*%
%ADD28RoundRect,0.250000X-0.400000X-0.625000X0.400000X-0.625000X0.400000X0.625000X-0.400000X0.625000X0*%
%ADD29RoundRect,0.237500X-0.237500X0.300000X-0.237500X-0.300000X0.237500X-0.300000X0.237500X0.300000X0*%
%ADD30RoundRect,0.150000X0.150000X-0.512500X0.150000X0.512500X-0.150000X0.512500X-0.150000X-0.512500X0*%
%ADD31RoundRect,0.237500X-0.287500X-0.237500X0.287500X-0.237500X0.287500X0.237500X-0.287500X0.237500X0*%
%ADD32RoundRect,0.150000X-0.150000X0.725000X-0.150000X-0.725000X0.150000X-0.725000X0.150000X0.725000X0*%
%ADD33RoundRect,0.150000X-0.150000X0.875000X-0.150000X-0.875000X0.150000X-0.875000X0.150000X0.875000X0*%
%ADD34R,7.875000X2.000000*%
G04 APERTURE END LIST*
D10*
%TO.C,R37*%
X103912500Y-80100000D03*
X102087500Y-80100000D03*
%TD*%
%TO.C,R36*%
X89062500Y-80100000D03*
X87237500Y-80100000D03*
%TD*%
D11*
%TO.C,Q1*%
X80850000Y-54050000D03*
X80850000Y-56350000D03*
X80850000Y-58650000D03*
D12*
X87150000Y-56350000D03*
%TD*%
D13*
%TO.C,C18*%
X84312500Y-81600000D03*
X82587500Y-81600000D03*
%TD*%
%TO.C,C25*%
X99562500Y-95150000D03*
X97837500Y-95150000D03*
%TD*%
D14*
%TO.C,F1*%
X82250000Y-101162500D03*
X82250000Y-104137500D03*
%TD*%
D15*
%TO.C,R15*%
X85750000Y-78287500D03*
X85750000Y-80112500D03*
%TD*%
D16*
%TO.C,D1*%
X89825000Y-68000000D03*
X88075000Y-68000000D03*
%TD*%
%TO.C,D4*%
X89825000Y-66400000D03*
X88075000Y-66400000D03*
%TD*%
D17*
%TO.C,R29*%
X84387500Y-106100000D03*
X86212500Y-106100000D03*
%TD*%
D18*
%TO.C,C16*%
X84062500Y-79650000D03*
X80937500Y-79650000D03*
%TD*%
D16*
%TO.C,D3*%
X89825000Y-63200000D03*
X88075000Y-63200000D03*
%TD*%
D13*
%TO.C,C24*%
X99162500Y-81650000D03*
X97437500Y-81650000D03*
%TD*%
D19*
%TO.C,C37*%
X107487500Y-60700000D03*
X109212500Y-60700000D03*
%TD*%
D20*
%TO.C,C13*%
X92450000Y-79925000D03*
X92450000Y-76800000D03*
%TD*%
D15*
%TO.C,R21*%
X100550000Y-78287500D03*
X100550000Y-80112500D03*
%TD*%
D19*
%TO.C,C28*%
X106837500Y-81650000D03*
X108562500Y-81650000D03*
%TD*%
D15*
%TO.C,R22*%
X105450000Y-78287500D03*
X105450000Y-80112500D03*
%TD*%
D16*
%TO.C,D5*%
X89825000Y-64800000D03*
X88075000Y-64800000D03*
%TD*%
D21*
%TO.C,C27*%
X99950000Y-96887500D03*
X99950000Y-100012500D03*
%TD*%
D18*
%TO.C,C31*%
X59362500Y-63150000D03*
X56237500Y-63150000D03*
%TD*%
%TO.C,C20*%
X84712500Y-97150000D03*
X81587500Y-97150000D03*
%TD*%
D17*
%TO.C,R3*%
X84387500Y-110500000D03*
X86212500Y-110500000D03*
%TD*%
D19*
%TO.C,C14*%
X91975000Y-81650000D03*
X93700000Y-81650000D03*
%TD*%
D10*
%TO.C,R6*%
X126262500Y-62950000D03*
X124437500Y-62950000D03*
%TD*%
D15*
%TO.C,R23*%
X102250000Y-76737500D03*
X102250000Y-78562500D03*
%TD*%
D17*
%TO.C,R5*%
X87837500Y-112100000D03*
X89662500Y-112100000D03*
%TD*%
D16*
%TO.C,D7*%
X125775000Y-58150000D03*
X124025000Y-58150000D03*
%TD*%
D19*
%TO.C,C29*%
X106437500Y-95150000D03*
X108162500Y-95150000D03*
%TD*%
D10*
%TO.C,R19*%
X93362500Y-68000000D03*
X91537500Y-68000000D03*
%TD*%
D22*
%TO.C,R16*%
X118500000Y-100550000D03*
X118500000Y-97450000D03*
%TD*%
D23*
%TO.C,J5*%
X129625000Y-63350000D03*
X129625000Y-62550000D03*
X129625000Y-61750000D03*
X129625000Y-60950000D03*
X129625000Y-60150000D03*
D24*
X129625000Y-66150000D03*
X129625000Y-57350000D03*
X135125000Y-66150000D03*
X135125000Y-57350000D03*
%TD*%
D25*
%TO.C,J6*%
X94125000Y-104490000D03*
X99175000Y-104490000D03*
X94125000Y-107030000D03*
X99175000Y-107030000D03*
X94125000Y-109570000D03*
X99175000Y-109570000D03*
X94125000Y-112110000D03*
X99175000Y-112110000D03*
%TD*%
D26*
%TO.C,R2*%
X88900000Y-78262500D03*
X88900000Y-76437500D03*
%TD*%
D20*
%TO.C,C26*%
X98600000Y-79912500D03*
X98600000Y-76787500D03*
%TD*%
D21*
%TO.C,C17*%
X91650000Y-96887500D03*
X91650000Y-100012500D03*
%TD*%
D15*
%TO.C,R14*%
X78700000Y-56587500D03*
X78700000Y-58412500D03*
%TD*%
D27*
%TO.C,C1*%
X131387500Y-54250000D03*
X134512500Y-54250000D03*
%TD*%
D28*
%TO.C,R1*%
X119850000Y-102800000D03*
X122950000Y-102800000D03*
%TD*%
D29*
%TO.C,C21*%
X114300000Y-92987500D03*
X114300000Y-94712500D03*
%TD*%
D13*
%TO.C,C10*%
X78312500Y-69800000D03*
X76587500Y-69800000D03*
%TD*%
D30*
%TO.C,U2*%
X87750000Y-98987500D03*
X88700000Y-98987500D03*
X89650000Y-98987500D03*
X89650000Y-96712500D03*
X88700000Y-96712500D03*
X87750000Y-96712500D03*
%TD*%
D15*
%TO.C,R18*%
X87400000Y-78262500D03*
X87400000Y-76437500D03*
%TD*%
D10*
%TO.C,R24*%
X93362500Y-63200000D03*
X91537500Y-63200000D03*
%TD*%
D13*
%TO.C,C6*%
X107462500Y-59100000D03*
X105737500Y-59100000D03*
%TD*%
D27*
%TO.C,C23*%
X107137500Y-79700000D03*
X110262500Y-79700000D03*
%TD*%
D14*
%TO.C,F2*%
X105800000Y-105950000D03*
X105800000Y-108925000D03*
%TD*%
D30*
%TO.C,U6*%
X102900000Y-98987500D03*
X103850000Y-98987500D03*
X104800000Y-98987500D03*
X104800000Y-96712500D03*
X103850000Y-96712500D03*
X102900000Y-96712500D03*
%TD*%
D10*
%TO.C,R25*%
X93362500Y-64800000D03*
X91537500Y-64800000D03*
%TD*%
D31*
%TO.C,D2*%
X87875000Y-110500000D03*
X89625000Y-110500000D03*
%TD*%
D17*
%TO.C,R31*%
X120837500Y-100650000D03*
X122662500Y-100650000D03*
%TD*%
D10*
%TO.C,R11*%
X107512500Y-57600000D03*
X105687500Y-57600000D03*
%TD*%
D32*
%TO.C,U3*%
X80705000Y-85825000D03*
X79435000Y-85825000D03*
X78165000Y-85825000D03*
X76895000Y-85825000D03*
X76895000Y-90975000D03*
X78165000Y-90975000D03*
X79435000Y-90975000D03*
X80705000Y-90975000D03*
%TD*%
D19*
%TO.C,C15*%
X91637500Y-95150000D03*
X93362500Y-95150000D03*
%TD*%
D26*
%TO.C,R35*%
X103800000Y-78562500D03*
X103800000Y-76737500D03*
%TD*%
D33*
%TO.C,U4*%
X92645000Y-83750000D03*
X91375000Y-83750000D03*
X90105000Y-83750000D03*
X88835000Y-83750000D03*
X87565000Y-83750000D03*
X86295000Y-83750000D03*
X85025000Y-83750000D03*
X83755000Y-83750000D03*
X83755000Y-93050000D03*
X85025000Y-93050000D03*
X86295000Y-93050000D03*
X87565000Y-93050000D03*
X88835000Y-93050000D03*
X90105000Y-93050000D03*
X91375000Y-93050000D03*
X92645000Y-93050000D03*
%TD*%
D17*
%TO.C,R28*%
X87837500Y-104500000D03*
X89662500Y-104500000D03*
%TD*%
D34*
%TO.C,Y1*%
X108687500Y-54050000D03*
X96812500Y-54050000D03*
%TD*%
D31*
%TO.C,D6*%
X87875000Y-106100000D03*
X89625000Y-106100000D03*
%TD*%
D10*
%TO.C,R20*%
X93362500Y-66400000D03*
X91537500Y-66400000D03*
%TD*%
D33*
%TO.C,U8*%
X107445000Y-83750000D03*
X106175000Y-83750000D03*
X104905000Y-83750000D03*
X103635000Y-83750000D03*
X102365000Y-83750000D03*
X101095000Y-83750000D03*
X99825000Y-83750000D03*
X98555000Y-83750000D03*
X98555000Y-93050000D03*
X99825000Y-93050000D03*
X101095000Y-93050000D03*
X102365000Y-93050000D03*
X103635000Y-93050000D03*
X104905000Y-93050000D03*
X106175000Y-93050000D03*
X107445000Y-93050000D03*
%TD*%
D13*
%TO.C,C19*%
X84862500Y-95150000D03*
X83137500Y-95150000D03*
%TD*%
D32*
%TO.C,U7*%
X114305000Y-85825000D03*
X113035000Y-85825000D03*
X111765000Y-85825000D03*
X110495000Y-85825000D03*
X110495000Y-90975000D03*
X111765000Y-90975000D03*
X113035000Y-90975000D03*
X114305000Y-90975000D03*
%TD*%
D27*
%TO.C,C30*%
X106575000Y-97100000D03*
X109700000Y-97100000D03*
%TD*%
D13*
%TO.C,C8*%
X103462500Y-57600000D03*
X101737500Y-57600000D03*
%TD*%
D15*
%TO.C,R17*%
X90550000Y-78287500D03*
X90550000Y-80112500D03*
%TD*%
D18*
%TO.C,C32*%
X59362500Y-104750000D03*
X56237500Y-104750000D03*
%TD*%
D10*
%TO.C,R4*%
X126262500Y-61400000D03*
X124437500Y-61400000D03*
%TD*%
D17*
%TO.C,R30*%
X118087500Y-91900000D03*
X119912500Y-91900000D03*
%TD*%
M02*
